<mxfile host="app.diagrams.net" modified="2024-07-12T16:31:21.977Z" agent="Mozilla/5.0 (Windows NT 10.0; Win64; x64) AppleWebKit/537.36 (KHTML, like Gecko) Chrome/126.0.0.0 Safari/537.36" etag="Dg1vk4nbgVSpZjXzIEpq" version="24.6.5" type="device">
  <diagram id="aEf3h9zvOVPK_aX-VWGx" name="TS-FSRS WorkFlow">
    <mxGraphModel dx="1434" dy="738" grid="1" gridSize="10" guides="1" tooltips="1" connect="1" arrows="1" fold="1" page="1" pageScale="1" pageWidth="827" pageHeight="1169" math="0" shadow="0">
      <root>
        <mxCell id="0" />
        <mxCell id="1" parent="0" />
        <mxCell id="hIY5gGmRd6_EkSXHLzxa-1" value="&lt;font style=&quot;font-size: 16px;&quot;&gt;&lt;b&gt;TS-FSRS&lt;/b&gt; Workflow&lt;/font&gt;" style="shape=cube;whiteSpace=wrap;html=1;boundedLbl=1;backgroundOutline=1;darkOpacity=0.05;darkOpacity2=0.1;" parent="1" vertex="1">
          <mxGeometry x="537" y="430" width="270" height="80" as="geometry" />
        </mxCell>
        <mxCell id="hIY5gGmRd6_EkSXHLzxa-2" value="&lt;font style=&quot;font-size: 16px;&quot;&gt;&lt;b&gt;NEW&lt;/b&gt;&lt;/font&gt;" style="ellipse;whiteSpace=wrap;html=1;" parent="1" vertex="1">
          <mxGeometry x="20" y="650" width="140" height="80" as="geometry" />
        </mxCell>
        <mxCell id="hIY5gGmRd6_EkSXHLzxa-3" value="&lt;b style=&quot;font-size: 16px;&quot;&gt;Learning/&lt;/b&gt;&lt;br&gt;&lt;b style=&quot;font-size: 16px;&quot;&gt;ReLearning&lt;/b&gt;&lt;br&gt;&lt;font style=&quot;font-size: 14px;&quot;&gt;Exï¼š1m 5m 10m&lt;/font&gt;" style="ellipse;whiteSpace=wrap;html=1;" parent="1" vertex="1">
          <mxGeometry x="407" y="640" width="140" height="80" as="geometry" />
        </mxCell>
        <mxCell id="hIY5gGmRd6_EkSXHLzxa-4" value="&lt;span style=&quot;font-size: 16px;&quot;&gt;&lt;b&gt;Review&lt;/b&gt;&lt;/span&gt;" style="ellipse;whiteSpace=wrap;html=1;" parent="1" vertex="1">
          <mxGeometry x="407" y="980" width="140" height="80" as="geometry" />
        </mxCell>
        <mxCell id="hIY5gGmRd6_EkSXHLzxa-6" value="&lt;font style=&quot;font-size: 16px;&quot;&gt;&lt;b&gt;Again&lt;/b&gt;&lt;/font&gt;" style="rounded=1;whiteSpace=wrap;html=1;fillColor=#ff5961;strokeColor=none;" parent="1" vertex="1">
          <mxGeometry x="597" y="570" width="70" height="50" as="geometry" />
        </mxCell>
        <mxCell id="hIY5gGmRd6_EkSXHLzxa-7" value="&lt;span style=&quot;font-size: 16px;&quot;&gt;&lt;b&gt;Hard&lt;/b&gt;&lt;/span&gt;" style="rounded=1;whiteSpace=wrap;html=1;fillColor=#ffbf00;strokeColor=none;" parent="1" vertex="1">
          <mxGeometry x="677" y="570" width="70" height="50" as="geometry" />
        </mxCell>
        <mxCell id="hIY5gGmRd6_EkSXHLzxa-8" value="&lt;font style=&quot;font-size: 16px;&quot;&gt;&lt;b&gt;Good&lt;/b&gt;&lt;/font&gt;" style="rounded=1;whiteSpace=wrap;html=1;fillColor=#00b5ff;strokeColor=none;" parent="1" vertex="1">
          <mxGeometry x="757" y="570" width="70" height="50" as="geometry" />
        </mxCell>
        <mxCell id="hIY5gGmRd6_EkSXHLzxa-14" value="" style="curved=1;endArrow=classic;html=1;rounded=0;dashed=1;entryX=-0.015;entryY=0.392;entryDx=0;entryDy=0;exitX=1;exitY=0.5;exitDx=0;exitDy=0;entryPerimeter=0;strokeWidth=2;" parent="1" source="hIY5gGmRd6_EkSXHLzxa-2" target="hIY5gGmRd6_EkSXHLzxa-3" edge="1">
          <mxGeometry width="50" height="50" relative="1" as="geometry">
            <mxPoint x="267" y="680" as="sourcePoint" />
            <mxPoint x="407" y="680" as="targetPoint" />
            <Array as="points">
              <mxPoint x="327" y="530" />
            </Array>
          </mxGeometry>
        </mxCell>
        <mxCell id="hIY5gGmRd6_EkSXHLzxa-15" value="" style="curved=1;endArrow=classic;html=1;rounded=0;dashed=1;strokeWidth=2;" parent="1" edge="1">
          <mxGeometry width="50" height="50" relative="1" as="geometry">
            <mxPoint x="507" y="620" as="sourcePoint" />
            <mxPoint x="557" y="670" as="targetPoint" />
            <Array as="points">
              <mxPoint x="607" y="560" />
            </Array>
          </mxGeometry>
        </mxCell>
        <mxCell id="hIY5gGmRd6_EkSXHLzxa-16" value="&lt;font style=&quot;font-size: 16px;&quot;&gt;First/Current/Next Step&lt;/font&gt;" style="text;html=1;align=center;verticalAlign=middle;resizable=0;points=[];autosize=1;strokeColor=none;fillColor=none;" parent="1" vertex="1">
          <mxGeometry x="607" y="620" width="190" height="30" as="geometry" />
        </mxCell>
        <mxCell id="hIY5gGmRd6_EkSXHLzxa-22" value="" style="curved=1;endArrow=classic;html=1;rounded=0;dashed=1;strokeWidth=2;exitX=0.5;exitY=1;exitDx=0;exitDy=0;entryX=0.5;entryY=0;entryDx=0;entryDy=0;" parent="1" source="hIY5gGmRd6_EkSXHLzxa-3" target="hIY5gGmRd6_EkSXHLzxa-4" edge="1">
          <mxGeometry width="50" height="50" relative="1" as="geometry">
            <mxPoint x="487" y="770" as="sourcePoint" />
            <mxPoint x="537" y="820" as="targetPoint" />
            <Array as="points">
              <mxPoint x="397" y="720" />
            </Array>
          </mxGeometry>
        </mxCell>
        <mxCell id="hIY5gGmRd6_EkSXHLzxa-9" value="&lt;font style=&quot;font-size: 16px;&quot;&gt;&lt;b&gt;Easy&lt;/b&gt;&lt;/font&gt;" style="rounded=1;whiteSpace=wrap;html=1;fillColor=#00a96e;strokeColor=none;" parent="1" vertex="1">
          <mxGeometry x="407" y="890" width="70" height="50" as="geometry" />
        </mxCell>
        <mxCell id="hIY5gGmRd6_EkSXHLzxa-19" value="&lt;font style=&quot;font-size: 16px;&quot;&gt;&lt;b&gt;Good&lt;/b&gt;&lt;/font&gt;" style="rounded=1;whiteSpace=wrap;html=1;fillColor=#00b5ff;strokeColor=none;" parent="1" vertex="1">
          <mxGeometry x="407" y="825" width="70" height="50" as="geometry" />
        </mxCell>
        <mxCell id="hIY5gGmRd6_EkSXHLzxa-25" value="" style="curved=1;endArrow=classic;html=1;rounded=0;dashed=1;strokeWidth=2;entryX=1;entryY=1;entryDx=0;entryDy=0;exitX=0.723;exitY=0.017;exitDx=0;exitDy=0;exitPerimeter=0;" parent="1" source="hIY5gGmRd6_EkSXHLzxa-4" target="hIY5gGmRd6_EkSXHLzxa-3" edge="1">
          <mxGeometry width="50" height="50" relative="1" as="geometry">
            <mxPoint x="547" y="960" as="sourcePoint" />
            <mxPoint x="487" y="990" as="targetPoint" />
            <Array as="points">
              <mxPoint x="787" y="740" />
            </Array>
          </mxGeometry>
        </mxCell>
        <mxCell id="hIY5gGmRd6_EkSXHLzxa-24" value="&lt;font style=&quot;font-size: 16px;&quot;&gt;&lt;b&gt;Again&lt;/b&gt;&lt;/font&gt;" style="rounded=1;whiteSpace=wrap;html=1;fillColor=#ff5961;strokeColor=none;" parent="1" vertex="1">
          <mxGeometry x="597" y="820" width="70" height="50" as="geometry" />
        </mxCell>
        <mxCell id="hIY5gGmRd6_EkSXHLzxa-29" value="&lt;b&gt;&lt;font style=&quot;font-size: 16px;&quot;&gt;= Relearning&lt;/font&gt;&lt;/b&gt;" style="text;html=1;align=center;verticalAlign=middle;resizable=0;points=[];autosize=1;strokeColor=none;fillColor=none;" parent="1" vertex="1">
          <mxGeometry x="667" y="830" width="120" height="30" as="geometry" />
        </mxCell>
        <mxCell id="hIY5gGmRd6_EkSXHLzxa-32" value="" style="curved=1;endArrow=classic;html=1;rounded=0;dashed=1;strokeWidth=2;exitX=0.5;exitY=1;exitDx=0;exitDy=0;entryX=-0.015;entryY=0.36;entryDx=0;entryDy=0;entryPerimeter=0;" parent="1" source="hIY5gGmRd6_EkSXHLzxa-2" target="hIY5gGmRd6_EkSXHLzxa-4" edge="1">
          <mxGeometry width="50" height="50" relative="1" as="geometry">
            <mxPoint x="177" y="840" as="sourcePoint" />
            <mxPoint x="227" y="890" as="targetPoint" />
            <Array as="points">
              <mxPoint x="157" y="910" />
            </Array>
          </mxGeometry>
        </mxCell>
        <mxCell id="hIY5gGmRd6_EkSXHLzxa-30" value="&lt;font style=&quot;font-size: 16px;&quot;&gt;&lt;b&gt;Easy&lt;/b&gt;&lt;/font&gt;" style="rounded=1;whiteSpace=wrap;html=1;fillColor=#00a96e;strokeColor=none;" parent="1" vertex="1">
          <mxGeometry x="187" y="880" width="70" height="50" as="geometry" />
        </mxCell>
        <mxCell id="hIY5gGmRd6_EkSXHLzxa-33" value="&lt;font style=&quot;font-size: 16px;&quot;&gt;&lt;b&gt;Again&lt;/b&gt;&lt;/font&gt;" style="rounded=1;whiteSpace=wrap;html=1;fillColor=#ff5961;strokeColor=none;" parent="1" vertex="1">
          <mxGeometry x="177" y="590" width="70" height="50" as="geometry" />
        </mxCell>
        <mxCell id="hIY5gGmRd6_EkSXHLzxa-34" value="&lt;span style=&quot;font-size: 16px;&quot;&gt;&lt;b&gt;Hard&lt;/b&gt;&lt;/span&gt;" style="rounded=1;whiteSpace=wrap;html=1;fillColor=#ffbf00;strokeColor=none;" parent="1" vertex="1">
          <mxGeometry x="257" y="590" width="70" height="50" as="geometry" />
        </mxCell>
        <mxCell id="hIY5gGmRd6_EkSXHLzxa-35" value="&lt;font style=&quot;font-size: 16px;&quot;&gt;&lt;b&gt;Good&lt;/b&gt;&lt;/font&gt;" style="rounded=1;whiteSpace=wrap;html=1;fillColor=#00b5ff;strokeColor=none;" parent="1" vertex="1">
          <mxGeometry x="337" y="590" width="70" height="50" as="geometry" />
        </mxCell>
        <mxCell id="hIY5gGmRd6_EkSXHLzxa-36" value="&lt;font style=&quot;font-size: 16px;&quot;&gt;&lt;b&gt;Learning&lt;/b&gt;&lt;/font&gt;" style="text;html=1;align=center;verticalAlign=middle;resizable=0;points=[];autosize=1;strokeColor=none;fillColor=none;" parent="1" vertex="1">
          <mxGeometry x="247" y="665" width="90" height="30" as="geometry" />
        </mxCell>
        <mxCell id="hIY5gGmRd6_EkSXHLzxa-37" value="&lt;span style=&quot;font-size: 16px;&quot;&gt;&lt;b&gt;=&lt;/b&gt;&lt;/span&gt;" style="text;html=1;align=center;verticalAlign=middle;resizable=0;points=[];autosize=1;strokeColor=none;fillColor=none;rotation=90;" parent="1" vertex="1">
          <mxGeometry x="276" y="645" width="30" height="30" as="geometry" />
        </mxCell>
        <mxCell id="hIY5gGmRd6_EkSXHLzxa-38" value="" style="curved=1;endArrow=classic;html=1;rounded=0;dashed=1;strokeWidth=2;" parent="1" edge="1">
          <mxGeometry width="50" height="50" relative="1" as="geometry">
            <mxPoint x="527" y="1060" as="sourcePoint" />
            <mxPoint x="430" y="1060" as="targetPoint" />
            <Array as="points">
              <mxPoint x="487" y="1200" />
            </Array>
          </mxGeometry>
        </mxCell>
        <mxCell id="hIY5gGmRd6_EkSXHLzxa-40" value="&lt;span style=&quot;font-size: 16px;&quot;&gt;&lt;b&gt;Hard&lt;/b&gt;&lt;/span&gt;" style="rounded=1;whiteSpace=wrap;html=1;fillColor=#ffbf00;strokeColor=none;" parent="1" vertex="1">
          <mxGeometry x="367" y="1140" width="70" height="50" as="geometry" />
        </mxCell>
        <mxCell id="hIY5gGmRd6_EkSXHLzxa-41" value="&lt;font style=&quot;font-size: 16px;&quot;&gt;&lt;b&gt;Good&lt;/b&gt;&lt;/font&gt;" style="rounded=1;whiteSpace=wrap;html=1;fillColor=#00b5ff;strokeColor=none;" parent="1" vertex="1">
          <mxGeometry x="447" y="1140" width="70" height="50" as="geometry" />
        </mxCell>
        <mxCell id="hIY5gGmRd6_EkSXHLzxa-42" value="&lt;font style=&quot;font-size: 16px;&quot;&gt;&lt;b&gt;Easy&lt;/b&gt;&lt;/font&gt;" style="rounded=1;whiteSpace=wrap;html=1;fillColor=#00a96e;strokeColor=none;" parent="1" vertex="1">
          <mxGeometry x="527" y="1140" width="70" height="50" as="geometry" />
        </mxCell>
        <mxCell id="hIY5gGmRd6_EkSXHLzxa-43" value="&lt;div style=&quot;&quot;&gt;&lt;pre style=&quot;&quot;&gt;&lt;font style=&quot;font-size: 16px;&quot;&gt;&lt;i&gt;Next_Interval&amp;gt;0&lt;/i&gt;&lt;/font&gt;&lt;/pre&gt;&lt;/div&gt;" style="text;html=1;align=center;verticalAlign=middle;resizable=0;points=[];autosize=1;strokeColor=none;fillColor=none;" parent="1" vertex="1">
          <mxGeometry x="367" y="780" width="170" height="60" as="geometry" />
        </mxCell>
        <mxCell id="hIY5gGmRd6_EkSXHLzxa-44" value="&lt;div style=&quot;&quot;&gt;&lt;pre style=&quot;&quot;&gt;&lt;pre style=&quot;font-size: 13px; border-color: var(--border-color);&quot;&gt;&lt;pre style=&quot;font-size: 12px; border-color: var(--border-color);&quot;&gt;&lt;span style=&quot;font-size: 13px; background-color: initial; font-family: Helvetica; white-space: normal;&quot;&gt;Next_Interval =&lt;/span&gt;&lt;br&gt;&lt;/pre&gt;&lt;/pre&gt;&lt;pre style=&quot;font-size: 13px; border-color: var(--border-color);&quot;&gt;  enable_fuzz &amp;amp;&amp;amp; ivl&amp;gt;2.5?&lt;/pre&gt;&lt;pre style=&quot;border-color: var(--border-color);&quot;&gt;      &lt;span style=&quot;font-size: 13px;&quot;&gt;fuzz_factor * (max_ivl - min_ivl + 1):&lt;/span&gt;&lt;/pre&gt;&lt;pre style=&quot;border-color: var(--border-color);&quot;&gt;&lt;span style=&quot;font-size: 13px;&quot;&gt;     &lt;/span&gt;ivl&lt;/pre&gt;&lt;pre style=&quot;border-color: var(--border-color);&quot;&gt;&lt;hr&gt;&lt;/pre&gt;&lt;pre style=&quot;border-color: var(--border-color);&quot;&gt; get_fuzz_range(ivl, elapsed, maximum_interval) =&amp;gt;&lt;br&gt;&lt;/pre&gt;&lt;pre style=&quot;border-color: var(--border-color);&quot;&gt;    return  { min_ivl, max_ivl }&lt;br&gt;&lt;/pre&gt;&lt;/pre&gt;&lt;/div&gt;" style="whiteSpace=wrap;html=1;shape=mxgraph.basic.document;align=left;" parent="1" vertex="1">
          <mxGeometry y="1010" width="320" height="180" as="geometry" />
        </mxCell>
        <mxCell id="hIY5gGmRd6_EkSXHLzxa-45" value="&lt;span style=&quot;orphans: 2; text-align: start; text-indent: 0px; widows: 2; text-decoration-thickness: initial; text-decoration-style: initial; text-decoration-color: initial; float: none; display: inline !important; font-size: 16px;&quot;&gt;Rollback the previous &lt;br&gt;review operation.&lt;br&gt;&lt;br&gt;&lt;/span&gt;" style="text;whiteSpace=wrap;html=1;" parent="1" vertex="1">
          <mxGeometry x="1004.5" y="750" width="170" height="50" as="geometry" />
        </mxCell>
        <mxCell id="hIY5gGmRd6_EkSXHLzxa-50" value="" style="curved=1;endArrow=classic;html=1;rounded=0;dashed=1;strokeWidth=2;exitX=1;exitY=0.5;exitDx=0;exitDy=0;exitPerimeter=0;entryX=1;entryY=0.5;entryDx=0;entryDy=0;entryPerimeter=0;fillColor=#dae8fc;strokeColor=#6c8ebf;" parent="1" source="hIY5gGmRd6_EkSXHLzxa-53" target="hIY5gGmRd6_EkSXHLzxa-52" edge="1">
          <mxGeometry width="50" height="50" relative="1" as="geometry">
            <mxPoint x="1001.5" y="910" as="sourcePoint" />
            <mxPoint x="1004.5" y="770" as="targetPoint" />
            <Array as="points">
              <mxPoint x="1080" y="860" />
              <mxPoint x="1070" y="860" />
              <mxPoint x="1070" y="870" />
            </Array>
          </mxGeometry>
        </mxCell>
        <mxCell id="hIY5gGmRd6_EkSXHLzxa-52" value="&lt;font style=&quot;font-size: 16px;&quot;&gt;Status of the previous card&lt;/font&gt;" style="shape=card;whiteSpace=wrap;html=1;fillColor=#f5f5f5;fontColor=#333333;strokeColor=#666666;" parent="1" vertex="1">
          <mxGeometry x="871.5" y="700" width="103" height="130" as="geometry" />
        </mxCell>
        <mxCell id="hIY5gGmRd6_EkSXHLzxa-53" value="&lt;font style=&quot;font-size: 16px;&quot;&gt;Reviewed card&lt;/font&gt;" style="shape=card;whiteSpace=wrap;html=1;fillColor=#d5e8d4;strokeColor=#82b366;" parent="1" vertex="1">
          <mxGeometry x="870" y="850" width="103" height="130" as="geometry" />
        </mxCell>
        <mxCell id="hIY5gGmRd6_EkSXHLzxa-60" value="&lt;font style=&quot;font-size: 16px;&quot;&gt;fsrs.rollback&lt;br&gt;(reviewedCard, currentLog)&lt;/font&gt;" style="text;html=1;align=left;verticalAlign=middle;resizable=0;points=[];autosize=1;strokeColor=none;fillColor=none;" parent="1" vertex="1">
          <mxGeometry x="1070" y="825" width="220" height="50" as="geometry" />
        </mxCell>
        <mxCell id="hIY5gGmRd6_EkSXHLzxa-61" value="&lt;font style=&quot;font-size: 16px;&quot;&gt;New card&lt;br&gt;&lt;/font&gt;" style="shape=card;whiteSpace=wrap;html=1;" parent="1" vertex="1">
          <mxGeometry x="870" y="1000" width="103" height="130" as="geometry" />
        </mxCell>
        <mxCell id="hIY5gGmRd6_EkSXHLzxa-62" value="" style="curved=1;endArrow=classic;html=1;rounded=0;dashed=1;strokeWidth=2;entryX=1;entryY=0.5;entryDx=0;entryDy=0;entryPerimeter=0;fillColor=#f8cecc;strokeColor=#b85450;exitX=1;exitY=0.5;exitDx=0;exitDy=0;exitPerimeter=0;" parent="1" source="hIY5gGmRd6_EkSXHLzxa-53" target="hIY5gGmRd6_EkSXHLzxa-61" edge="1">
          <mxGeometry width="50" height="50" relative="1" as="geometry">
            <mxPoint x="994.5" y="940" as="sourcePoint" />
            <mxPoint x="984.5" y="775" as="targetPoint" />
            <Array as="points">
              <mxPoint x="1045" y="960" />
              <mxPoint x="1070" y="990" />
            </Array>
          </mxGeometry>
        </mxCell>
        <mxCell id="hIY5gGmRd6_EkSXHLzxa-63" value="&lt;span style=&quot;orphans: 2; text-align: start; text-indent: 0px; widows: 2; text-decoration-thickness: initial; text-decoration-style: initial; text-decoration-color: initial; float: none; display: inline !important;&quot;&gt;&lt;font style=&quot;font-size: 16px;&quot;&gt;Revert to a new card.&lt;/font&gt;&lt;/span&gt;" style="text;whiteSpace=wrap;html=1;" parent="1" vertex="1">
          <mxGeometry x="990" y="1050" width="200" height="50" as="geometry" />
        </mxCell>
        <mxCell id="hIY5gGmRd6_EkSXHLzxa-64" value="&lt;font style=&quot;font-size: 16px;&quot;&gt;fsrs.forget&lt;br&gt;(reviewedCard,now,resetCount=false&lt;span style=&quot;background-color: initial;&quot;&gt;)&lt;/span&gt;&lt;/font&gt;" style="text;html=1;align=left;verticalAlign=middle;resizable=0;points=[];autosize=1;strokeColor=none;fillColor=none;" parent="1" vertex="1">
          <mxGeometry x="1070" y="960" width="290" height="50" as="geometry" />
        </mxCell>
        <mxCell id="hIY5gGmRd6_EkSXHLzxa-65" value="&lt;div style=&quot;&quot;&gt;&lt;pre style=&quot;&quot;&gt;&lt;font style=&quot;font-size: 16px;&quot;&gt;&lt;i&gt;Next_Interval&amp;gt;0&lt;/i&gt;&lt;/font&gt;&lt;/pre&gt;&lt;/div&gt;" style="text;html=1;align=center;verticalAlign=middle;resizable=0;points=[];autosize=1;strokeColor=none;fillColor=none;" parent="1" vertex="1">
          <mxGeometry x="17" y="870" width="170" height="60" as="geometry" />
        </mxCell>
      </root>
    </mxGraphModel>
  </diagram>
</mxfile>
